<svg xmlns="http://www.w3.org/2000/svg" viewBox="0 0 128 128"><rect width="128" height="128" rx="26" fill="#FDF7EC"/><rect x="18" y="44" width="28" height="40" rx="8" fill="#FFF0D9" stroke="#111827" stroke-width="3"/><path d="M18 54h28" stroke="#E3B334" stroke-width="8" stroke-linecap="round"/><path d="M27 34h10l2 10H25l2-10Z" fill="#FFD966" stroke="#111827" stroke-width="3"/><path d="M46 48c9 0 15 7 15 16v6" stroke="#111827" stroke-width="4" fill="none" stroke-linecap="round"/><rect x="62" y="28" width="26" height="56" rx="6" fill="#9DE1FF" stroke="#111827" stroke-width="3"/><rect x="70" y="18" width="10" height="10" rx="2" fill="#F05572"/><rect x="66" y="44" width="18" height="20" rx="2" fill="#F24B63"/><path d="M90 48h16c6 0 8 4 8 9v14c0 5-2 9-8 9H90V48Z" fill="#FDB74D" stroke="#111827" stroke-width="3"/><path d="M98 48v-8" stroke="#111827" stroke-width="3"/></svg>